<svg width="23" height="25" viewBox="0 0 23 25" fill="none" xmlns="http://www.w3.org/2000/svg">
<path d="M22.375 17.5005V1.25049C22.375 0.469238 21.9062 0.000488281 21.125 0.000488281H5.1875C2.53125 0.000488281 0.5 2.03174 0.5 4.68799V20.313C0.5 22.9692 2.53125 25.0005 5.1875 25.0005H21.125C21.75 25.0005 22.375 24.5317 22.375 23.7505V22.9692C22.375 22.6567 22.2188 22.3442 21.9062 22.0317C21.75 21.2505 21.75 19.063 21.9062 18.438C22.2188 18.2817 22.375 17.9692 22.375 17.5005ZM15.2012 7.12061C15.2305 7.06152 15.2871 7.03174 15.3438 7.03174C15.4004 7.03174 15.457 7.06152 15.4863 7.12061L16.0322 8.22656L17.2529 8.40381C17.3833 8.42285 17.4355 8.58301 17.3413 8.67529L16.458 9.53613L16.6665 10.7515C16.6841 10.8545 16.6025 10.938 16.5098 10.938C16.4854 10.938 16.46 10.9321 16.4355 10.9194L15.3438 10.3457L14.252 10.9194C14.2275 10.9321 14.2021 10.938 14.1777 10.938C14.085 10.938 14.0034 10.8545 14.021 10.7515L14.2295 9.53613L13.3462 8.67529C13.2515 8.58301 13.3037 8.42285 13.4346 8.40381L14.6548 8.22656L15.2012 7.12061ZM12.3745 3.75098C13.042 3.75098 13.7056 3.87256 14.3462 4.11279C14.3946 4.11283 14.4424 4.12349 14.4863 4.14403C14.5301 4.16458 14.5689 4.19449 14.6 4.23168C14.631 4.26886 14.6535 4.3124 14.6658 4.35922C14.6782 4.40604 14.6801 4.455 14.6715 4.50265C14.6628 4.5503 14.6438 4.59546 14.6158 4.63496C14.5878 4.67446 14.5515 4.70733 14.5093 4.73125C14.4672 4.75517 14.4204 4.76955 14.3721 4.77338C14.3239 4.77721 14.2753 4.77039 14.23 4.75342C14.1973 4.75342 14.0791 4.74316 14.0283 4.74316C11.4741 4.74316 9.39648 6.8208 9.39648 9.375C9.39648 11.9287 11.4741 14.0068 14.0283 14.0068C14.0786 14.0068 14.1982 13.9966 14.23 13.9966C14.4219 13.9966 14.562 14.1499 14.562 14.3276C14.562 14.4731 14.4673 14.5967 14.3364 14.6411C13.6982 14.8789 13.0381 14.9995 12.374 14.9995C9.27295 15 6.75 12.4766 6.75 9.37549C6.75 6.27393 9.27295 3.75098 12.3745 3.75098ZM19.0938 21.8755H5.1875C4.25 21.8755 3.625 21.2505 3.625 20.313C3.625 19.3755 4.40625 18.7505 5.1875 18.7505H19.0938V21.8755Z" fill="#8B7B69"/>
</svg>
