<svg width="26" height="23" viewBox="0 0 26 23" fill="none" xmlns="http://www.w3.org/2000/svg">
<path d="M24.8056 12.5H21.3333V16.6667L19.9444 15.7422L18.5556 16.6667V12.5H15.0833C14.7014 12.5 14.3889 12.8125 14.3889 13.1944V21.5278C14.3889 21.9097 14.7014 22.2222 15.0833 22.2222H24.8056C25.1875 22.2222 25.5 21.9097 25.5 21.5278V13.1944C25.5 12.8125 25.1875 12.5 24.8056 12.5ZM8.13889 9.72222H17.8611C18.2431 9.72222 18.5556 9.40972 18.5556 9.02778V0.694444C18.5556 0.3125 18.2431 0 17.8611 0H14.3889V4.16667L13 3.24219L11.6111 4.16667V0H8.13889C7.75694 0 7.44444 0.3125 7.44444 0.694444V9.02778C7.44444 9.40972 7.75694 9.72222 8.13889 9.72222ZM10.9167 12.5H7.44444V16.6667L6.05556 15.7422L4.66667 16.6667V12.5H1.19444C0.8125 12.5 0.5 12.8125 0.5 13.1944V21.5278C0.5 21.9097 0.8125 22.2222 1.19444 22.2222H10.9167C11.2986 22.2222 11.6111 21.9097 11.6111 21.5278V13.1944C11.6111 12.8125 11.2986 12.5 10.9167 12.5Z" fill="#8B7B69"/>
</svg>
