<svg width="22" height="25" viewBox="0 0 22 25" fill="none" xmlns="http://www.w3.org/2000/svg">
<path d="M19.5938 0H2.40625C1.15625 0 0.0625 1.09375 0.0625 2.34375V22.6562C0.0625 23.9062 1.15625 25 2.40625 25H19.5938C20.8438 25 21.9375 23.9062 21.9375 22.6562V2.34375C21.9375 1.09375 20.8438 0 19.5938 0ZM6.3125 21.25C6.3125 21.5625 6 21.875 5.6875 21.875H3.8125C3.5 21.875 3.1875 21.5625 3.1875 21.25V19.375C3.1875 19.0625 3.5 18.75 3.8125 18.75H5.6875C6 18.75 6.3125 19.0625 6.3125 19.375V21.25ZM6.3125 15C6.3125 15.3125 6 15.625 5.6875 15.625H3.8125C3.5 15.625 3.1875 15.3125 3.1875 15V13.125C3.1875 12.8125 3.5 12.5 3.8125 12.5H5.6875C6 12.5 6.3125 12.8125 6.3125 13.125V15ZM12.5625 21.25C12.5625 21.5625 12.25 21.875 11.9375 21.875H10.0625C9.75 21.875 9.4375 21.5625 9.4375 21.25V19.375C9.4375 19.0625 9.75 18.75 10.0625 18.75H11.9375C12.25 18.75 12.5625 19.0625 12.5625 19.375V21.25ZM12.5625 15C12.5625 15.3125 12.25 15.625 11.9375 15.625H10.0625C9.75 15.625 9.4375 15.3125 9.4375 15V13.125C9.4375 12.8125 9.75 12.5 10.0625 12.5H11.9375C12.25 12.5 12.5625 12.8125 12.5625 13.125V15ZM18.8125 21.25C18.8125 21.5625 18.5 21.875 18.1875 21.875H16.3125C16 21.875 15.6875 21.5625 15.6875 21.25V13.125C15.6875 12.8125 16 12.5 16.3125 12.5H18.1875C18.5 12.5 18.8125 12.8125 18.8125 13.125V21.25ZM18.8125 8.75C18.8125 9.0625 18.5 9.375 18.1875 9.375H3.8125C3.5 9.375 3.1875 9.0625 3.1875 8.75V3.75C3.1875 3.4375 3.5 3.125 3.8125 3.125H18.1875C18.5 3.125 18.8125 3.4375 18.8125 3.75V8.75Z" fill="#8B7B69"/>
</svg>
