<svg width="26" height="25" viewBox="0 0 26 25" fill="none" xmlns="http://www.w3.org/2000/svg">
<path d="M24.3574 12.1764L19.6406 10.1565V4.1025C19.6406 3.26554 19.1865 2.51786 18.498 2.22213L13.6152 0.129729C13.2197 -0.0432429 12.7803 -0.0432429 12.3799 0.129729L7.49707 2.22213C6.80859 2.51786 6.35449 3.26554 6.35449 4.1025V10.1565L1.6377 12.1764C0.954102 12.4721 0.5 13.2198 0.5 14.0567V20.2C0.5 20.9589 0.875977 21.6563 1.47168 21.9967L6.35449 24.7866C6.84766 25.0711 7.43359 25.0711 7.92676 24.7866L13 21.8851L18.0732 24.7866C18.5664 25.0711 19.1523 25.0711 19.6455 24.7866L24.5283 21.9967C25.124 21.6563 25.5 20.9589 25.5 20.2V14.0567C25.5 13.2198 25.0459 12.4721 24.3574 12.1764ZM17.9805 10.2011L13.8301 11.9811V8.1757L17.9805 6.1112V10.2011ZM8.01953 4.02438L13 1.89293L17.9805 4.02438V4.05786L13 6.36787L8.01953 4.05786V4.02438ZM12.1211 20.267L7.9707 22.6384V18.2248L12.1211 16.0599V20.267ZM12.1211 14.0177L7.14062 16.3277L2.16016 14.0177V13.9842L7.14062 11.8527L12.1211 13.9842V14.0177ZM23.8398 20.267L19.6895 22.6384V18.2248L23.8398 16.0599V20.267ZM23.8398 14.0177L18.8594 16.3277L13.8789 14.0177V13.9842L18.8594 11.8527L23.8398 13.9842V14.0177Z" fill="#8B7B69"/>
</svg>
