<svg width="26" height="19" viewBox="0 0 26 19" fill="none" xmlns="http://www.w3.org/2000/svg">
<path d="M23.9375 11.0625C23.9375 7.14404 21.5312 3.79102 18.1177 2.38965L16.125 6.375V0.90625C16.125 0.69905 16.0427 0.500336 15.8962 0.353823C15.7497 0.20731 15.551 0.125 15.3438 0.125H10.6562C10.449 0.125 10.2503 0.20731 10.1038 0.353823C9.95731 0.500336 9.875 0.69905 9.875 0.90625V6.375L7.88232 2.38965C4.46875 3.79102 2.0625 7.14404 2.0625 11.0625V14.1875H23.9375V11.0625ZM24.7188 15.75H1.28125C1.07405 15.75 0.875336 15.8323 0.728823 15.9788C0.58231 16.1253 0.5 16.324 0.5 16.5312L0.5 18.0938C0.5 18.301 0.58231 18.4997 0.728823 18.6462C0.875336 18.7927 1.07405 18.875 1.28125 18.875H24.7188C24.926 18.875 25.1247 18.7927 25.2712 18.6462C25.4177 18.4997 25.5 18.301 25.5 18.0938V16.5312C25.5 16.324 25.4177 16.1253 25.2712 15.9788C25.1247 15.8323 24.926 15.75 24.7188 15.75Z" fill="#8B7B69"/>
</svg>
