<svg width="26" height="25" viewBox="0 0 26 25" fill="none" xmlns="http://www.w3.org/2000/svg">
<path d="M5.84479 11.9163L12.4161 5.34595L10.2618 3.19165L7.25006 6.20337C7.21415 6.23935 7.17149 6.2679 7.12453 6.28738C7.07757 6.30686 7.02722 6.31689 6.97638 6.31689C6.92554 6.31689 6.8752 6.30686 6.82824 6.28738C6.78128 6.2679 6.73862 6.23935 6.7027 6.20337L6.15534 5.65601C6.00397 5.50464 6.00397 5.25952 6.15534 5.10864L9.16706 2.09692L7.52448 0.453857C6.9195 -0.151123 5.93903 -0.151123 5.33405 0.453857L0.953677 4.83423C0.349185 5.43921 0.348697 6.41968 0.953677 7.02466L5.84479 11.9163ZM24.8131 6.21313C25.7291 5.29712 25.7286 3.81226 24.8131 2.89624L22.6036 0.686768C21.6876 -0.229248 20.2022 -0.229248 19.2857 0.686768L17.0386 2.93335L22.566 8.46069L24.8131 6.21313ZM15.9337 4.03882L1.4317 18.5388L0.515689 23.7849C0.392154 24.4924 1.00836 25.1086 1.71637 24.9841L6.96295 24.0642L21.461 9.56567L15.9337 4.03882ZM25.0464 17.9758L23.4039 16.3333L20.3922 19.345C20.2408 19.4963 19.9957 19.4963 19.8448 19.345L19.2974 18.7976C19.1465 18.6462 19.1465 18.4011 19.2974 18.2502L22.3091 15.2385L20.1539 13.0833L13.5826 19.6536L18.4757 24.5461C19.0806 25.1511 20.0611 25.1511 20.6661 24.5461L25.0464 20.1663C25.6514 19.5613 25.6514 18.5808 25.0464 17.9758Z" fill="#8B7B69"/>
</svg>
