<svg width="26" height="15" viewBox="0 0 26 15" fill="none" xmlns="http://www.w3.org/2000/svg">
<path d="M6.75 6.25V8.75H19.25V6.25C19.25 4.87109 20.3711 3.75 21.75 3.75H23C23 1.67969 21.3203 0 19.25 0H6.75C4.67969 0 3 1.67969 3 3.75H4.25C5.62891 3.75 6.75 4.87109 6.75 6.25ZM23 5H21.75C21.0586 5 20.5 5.55859 20.5 6.25V10H5.5V6.25C5.5 5.55859 4.94141 5 4.25 5H3C1.62109 5 0.5 6.12109 0.5 7.5C0.5 8.42188 1.00781 9.21875 1.75 9.65234V14.375C1.75 14.7188 2.03125 15 2.375 15H4.875C5.21875 15 5.5 14.7188 5.5 14.375V13.75H20.5V14.375C20.5 14.7188 20.7812 15 21.125 15H23.625C23.9688 15 24.25 14.7188 24.25 14.375V9.65234C24.9922 9.21875 25.5 8.42188 25.5 7.5C25.5 6.12109 24.3789 5 23 5Z" fill="#8B7B69"/>
</svg>
