<svg width="26" height="23" viewBox="0 0 26 23" fill="none" xmlns="http://www.w3.org/2000/svg">
<path d="M25.2964 8.80633L24.3142 7.82412C24.0429 7.55286 23.6033 7.55286 23.332 7.82412L22.8411 8.31501L21.5868 7.06067C21.8311 6.13576 21.6024 5.11188 20.8771 4.38662L18.9132 2.42265C16.2014 -0.289157 11.8042 -0.289157 9.09199 2.42265L13.0204 4.38662V5.20043C13.0204 5.93697 13.3129 6.64357 13.8342 7.1644L15.967 9.29721C16.6923 10.0225 17.7161 10.2512 18.641 10.0068L19.8954 11.2612L19.4045 11.7521C19.1332 12.0233 19.1332 12.463 19.4045 12.7343L20.3867 13.7165C20.658 13.9878 21.0976 13.9878 21.3689 13.7165L25.2973 9.7881C25.5677 9.51727 25.5677 9.0776 25.2964 8.80633ZM12.852 8.14661C12.6914 7.98602 12.5551 7.8085 12.4245 7.62794L1.35241 17.9652C0.2426 19.0016 0.212652 20.7512 1.286 21.825C2.35935 22.8988 4.10935 22.8688 5.14581 21.7586L15.4813 10.6878C15.3094 10.5615 15.1384 10.4331 14.9848 10.2794L12.852 8.14661Z" fill="#8B7B69"/>
</svg>
